<?xml version="1.0" encoding="UTF-8" standalone="no"?>
<!-- Created with Inkscape (http://www.inkscape.org/) -->

<svg
   xmlns:dc="http://purl.org/dc/elements/1.1/"
   xmlns:cc="http://creativecommons.org/ns#"
   xmlns:rdf="http://www.w3.org/1999/02/22-rdf-syntax-ns#"
   xmlns:svg="http://www.w3.org/2000/svg"
   xmlns="http://www.w3.org/2000/svg"
   xmlns:sodipodi="http://sodipodi.sourceforge.net/DTD/sodipodi-0.dtd"
   xmlns:inkscape="http://www.inkscape.org/namespaces/inkscape"
   width="210mm"
   height="297mm"
   viewBox="0 0 210 297"
   version="1.1"
   id="svg8"
   inkscape:version="0.92.5 (2060ec1f9f, 2020-04-08)"
   sodipodi:docname="pista.svg"
   inkscape:export-filename="/home/ivan/dev/js/ia/car/src/temp/p2.png"
   inkscape:export-xdpi="96"
   inkscape:export-ydpi="96">
  <defs
     id="defs2" />
  <sodipodi:namedview
     id="base"
     pagecolor="#ffffff"
     bordercolor="#666666"
     borderopacity="1.0"
     inkscape:pageopacity="0.0"
     inkscape:pageshadow="2"
     inkscape:zoom="0.66358712"
     inkscape:cx="-1006.6679"
     inkscape:cy="831.18765"
     inkscape:document-units="mm"
     inkscape:current-layer="layer1"
     showgrid="false"
     inkscape:window-width="2560"
     inkscape:window-height="995"
     inkscape:window-x="0"
     inkscape:window-y="0"
     inkscape:window-maximized="1" />
  <metadata
     id="metadata5">
    <rdf:RDF>
      <cc:Work
         rdf:about="">
        <dc:format>image/svg+xml</dc:format>
        <dc:type
           rdf:resource="http://purl.org/dc/dcmitype/StillImage" />
        <dc:title />
      </cc:Work>
    </rdf:RDF>
  </metadata>
  <g
     inkscape:label="Camada 1"
     inkscape:groupmode="layer"
     id="layer1">
    <rect
       style="fill:#44aa00;stroke:#44aa00;stroke-width:1.67227185;stroke-linecap:round;stroke-miterlimit:4;stroke-dasharray:none;stroke-dashoffset:113.38581848;stroke-opacity:1"
       id="rect864"
       width="495.35858"
       height="250.29109"
       x="-541.62122"
       y="-20.400743" />
    <path
       style="fill:#cccccc;stroke:#de8787;stroke-width:3.00000008;stroke-linecap:butt;stroke-linejoin:miter;stroke-opacity:1;stroke-miterlimit:4;stroke-dasharray:1.50000004, 1.50000003999999998;stroke-dashoffset:0"
       d="M -60.854166,73.616071 V 18.431545 C -61.241656,6.3030482 -68.291001,0.46388989 -79.752976,-1.6011903 H -211.28868 c -5.44911,-0.02244 -9.35062,1.94490771 -9.82739,8.315475 l 0.75596,62.7440513 c -0.009,3.228919 -0.78698,5.85071 -4.15774,6.42559 h -85.58162 c -3.09313,0.15659 -2.7446,0.122641 -4.81043,-1.984928 L -348.48157,39.64912 c -2.11364,-2.485466 -2.31636,-1.940788 -5.51692,-1.940788 h -48.0417 c -3.5708,-0.05022 -3.11687,0.42106 -3.15028,-2.498835 V 6.6116578 c 0.0727,-2.0594284 -0.31849,-3.0948525 -1.29072,-4.778801 l -7.02196,-12.1623908 c -1.32644,-2.056425 -1.0629,-1.851355 -3.40391,-1.851355 H -518.9372 c -1.54703,-0.0269 -1.97671,0.06273 -3.00335,1.08937 l -10.70749,10.7074833 c -2.20343,2.5191088 -1.99746,2.3107289 -1.99746,5.5591198 V 80.211004 c -0.0642,2.521914 0.14517,3.077866 1.43444,5.061841 l 5.00403,7.700419 c 1.28307,1.817695 1.04261,1.364685 3.69058,1.431502 h 28.33057 c 4.74327,-0.03653 3.6247,-0.755505 5.87763,3.146679 l 1.54762,2.680565 c 1.42681,2.9419 1.81742,3.45049 1.81742,6.63913 v 40.25747 c -0.61845,5.58339 -4.74199,8.65604 -9.08947,12.31763 -1.54617,1.3858 -2.83914,1.60153 -4.89723,1.8603 -20.29413,0.40078 -18.40937,14.83991 -18.40937,34.39583 3.09807,16.34842 7.48261,17.63853 21.38561,22.0292 1.38002,0.49337 2.51757,0.5738 4.00617,0.64938 h 123.15286 c 8.23801,-0.35164 15.17051,-1.57097 14.90789,-8.60708 0,0 -1.93551,-40.56319 -0.71162,-51.48608 0.36102,-3.69101 1.54373,-2.89537 4.40849,-3.11425 16.94215,-0.62816 87.48,-2.80147 101.72374,-3.23922 1.97834,-0.099 2.23998,-0.57496 3.28966,1.33355 l 2.28328,4.1514 c 0.89504,2.15227 0.74915,1.93351 -0.64239,3.65992 l -38.56923,36.83187 c -1.77714,1.40367 -1.66725,1.79179 -1.88175,3.93683 l -1.41971,14.19704 c -0.35239,2.85431 -0.56951,2.33602 2.16288,2.33602 h 216.788992 c 4.157929,0.12071 3.423627,0.39684 6.199053,-2.37858 l 6.982416,-6.98242 c 2.273766,-2.06462 1.985008,-1.79699 1.876471,-4.72748 l -1.328716,-35.8752 c -0.111526,-2.14266 -0.01862,-2.05333 -1.469051,-3.39332 l -30.080359,-25.93134 c -1.694609,-1.23809 -1.410167,-1.40917 -1.349129,-3.42346 l 0.241979,-7.98545 c 0.06366,-2.05174 0.508127,-3.0749 1.413495,-4.70456 l 23.423663,-42.162579 c 1.356983,-2.776352 1.492503,-4.581903 1.69042,-7.20049 z"
       id="path21"
       inkscape:connector-curvature="0"
       inkscape:export-filename="/home/ivan/dev/js/ia/car/src/temp/p2.png"
       inkscape:export-xdpi="96"
       inkscape:export-ydpi="96"
       sodipodi:nodetypes="ccccccccccccccccccccccccccccccccccccccccccccccccccccccccccc" />
    <path
       style="fill:#44aa00;stroke:#de8787;stroke-width:3.00000008;stroke-linecap:butt;stroke-linejoin:miter;stroke-opacity:1;stroke-miterlimit:4;stroke-dasharray:1.50000004, 1.50000003999999998;stroke-dashoffset:0"
       d="M -94.494047,69.520223 V 38.842262 c 0.03452,-6.047319 -2.095202,-7.847903 -4.157737,-7.559524 h -66.523806 c -5.915,-0.238723 -11.21942,0.743688 -13.60714,7.559524 v 59.720236 c -0.18986,10.579892 -3.42691,15.268542 -8.95973,15.518712 h -147.0972 c -1.50784,0 -3.08824,-0.0615 -4.47663,-0.64965 -1.33114,-0.56392 -2.45152,-1.60023 -3.4031,-2.68853 0,0 -14.39755,-16.466134 -21.59632,-24.699201 -4.302,-5.40109 -11.65282,-8.275111 -15.50623,-8.099455 l -23.07096,0.876113 c -1.64514,0.0198 -2.90203,-0.05898 -4.29483,-0.419989 0,0 -13.06968,-2.676171 -19.3318,-4.909664 -0.79093,-0.2821 -1.56078,-0.636606 -2.283,-1.065031 -0.79419,-0.471115 -1.5343,-1.036067 -2.23135,-1.641718 -4.04733,-3.516642 -10.46288,-10.3863 -13.40712,-13.589606 -0.9763,-1.0622 -0.93526,-1.377577 -1.2034,-2.155579 -0.20433,-0.592844 -0.25193,-1.232828 -0.28977,-1.858754 -0.27325,-4.520053 0.13668,-12.118922 0.42841,-16.536559 0.0948,-3.87844 0.12299,-3.320587 -1.75343,-6.617632 0,0 -2.3,-3.322648 -3.84082,-4.850492 -0.50782,-0.503538 -1.08334,-0.974587 -1.74284,-1.251144 -0.97531,-0.408992 -2.07206,-0.456533 -3.12625,-0.541512 -10.63216,-0.857073 -21.69897,-2.435269 -31.99815,0.340407 -2.12753,0.573379 -4.2103,1.684656 -5.7501,3.260771 -1.63607,1.674643 -2.69105,3.933878 -3.32132,6.188632 -1.35889,4.861386 -1.36881,13.512717 -1.25397,18.238573 0.0488,2.007047 -0.12106,1.840433 0.40958,2.495357 0.50563,0.624053 1.44212,0.857366 2.24511,0.874883 7.94036,0.173216 19.19575,0.471742 24.43466,0.61314 3.17253,-0.154795 3.16728,0.315314 5.05475,2.02559 3.34672,3.033885 9.74612,8.929899 13.14532,12.68192 0.55652,0.614282 1.08732,1.25908 1.53261,1.958196 0.39589,0.621562 0.70867,1.294678 1.0016,1.970891 2.11759,4.888389 5.15881,13.798775 6.46608,17.700982 0.59094,1.717956 0.66596,2.753214 0.7187,4.269429 l 1.43007,41.114492 0.3551,30.89285 c 0.1773,1.46663 -0.25456,1.91988 -1.1765,2.95834 l -9.65887,7.78941 c -0.64761,0.40521 -1.0609,0.96195 -1.50932,1.55985 l -2.06733,2.75643 c -0.70377,0.78322 -0.69739,0.88829 -0.21934,1.74878 l 0.80717,1.4529 c 0.65234,1.08216 1.20904,1.00175 2.3943,1.09901 l 46.26844,-0.34529 c 2.58961,-0.12079 2.56906,0.0618 3.99617,-1.69322 3.85139,-4.74142 3.48089,-5.57442 4.27746,-12.6893 l -2.44568,-32.14322 c -0.34793,-3.06215 -0.38632,-2.48007 1.92194,-4.34632 l 12.84578,-10.38594 c 2.92701,-2.61342 2.63992,-2.26142 6.40172,-2.26142 h 150.11506 c 6.41048,0.057 8.48763,1.72016 12.55469,6.12513 0,0 12.38218,18.94259 18.94935,28.15331 3.04641,4.24802 3.51935,4.40092 0.2231,7.72566 -3.86323,3.99987 -11.38822,10.07497 -15.08809,13.0007 -1.2752,1.21304 -2.28972,1.92444 -3.09964,3.16376 -1.48403,2.26993 -1.4889,2.16881 -0.47045,4.52703 0.72343,1.9176 0.66934,1.56025 2.80016,1.54464 l 96.82154,-0.70932 c 4.27642,-0.1251 4.2197,-0.0305 7.71308,-2.02667 l 4.03487,-2.30564 1.08702,-2.03577 -1.05611,-2.30623 -50.86982,-43.6518 c -3.81008,-3.64586 -2.11034,-9.25163 -2.44245,-14.87606 0.10351,-2.23329 2.12975,-4.33395 3.551,-5.2202 l 56.58764,-38.093527 c 3.468308,-3.080899 3.00241,-2.634434 3.758143,-7.00372 z"
       id="path38"
       inkscape:connector-curvature="0"
       inkscape:export-filename="/home/ivan/dev/js/ia/car/src/temp/p2.png"
       inkscape:export-xdpi="96"
       inkscape:export-ydpi="96"
       sodipodi:nodetypes="cccccccsssccccssssssccsssssssssccsssccccccccccccccccccccccccccccccccccccc" />
    <path
       style="fill:#00aad4;stroke:#de8787;stroke-width:0;stroke-linecap:round;stroke-miterlimit:4;stroke-dasharray:0,0;stroke-dashoffset:0"
       id="path874"
       sodipodi:type="arc"
       sodipodi:cx="-140.14896"
       sodipodi:cy="63.152592"
       sodipodi:rx="28.508253"
       sodipodi:ry="24.122366"
       sodipodi:start="0"
       sodipodi:end="6.0852301"
       sodipodi:open="true"
       d="m -111.6407,63.152592 a 28.508253,24.122366 0 0 1 -27.09799,24.092832 28.508253,24.122366 0 0 1 -29.77899,-21.709155 28.508253,24.122366 0 0 1 24.15174,-26.240675 28.508253,24.122366 0 0 1 32.16849,19.112975" />
  </g>
</svg>
